<?xml version="1.0" encoding="UTF-8" standalone="no"?>
<!-- Created with Inkscape (http://www.inkscape.org/) -->

<svg
   width="200mm"
   height="102mm"
   viewBox="0 0 200 102"
   version="1.1"
   id="svg5"
   inkscape:version="1.2.2 (732a01da63, 2022-12-09)"
   sodipodi:docname="logo.svg"
   inkscape:export-filename="logo.png"
   inkscape:export-xdpi="96"
   inkscape:export-ydpi="96"
   xmlns:inkscape="http://www.inkscape.org/namespaces/inkscape"
   xmlns:sodipodi="http://sodipodi.sourceforge.net/DTD/sodipodi-0.dtd"
   xmlns="http://www.w3.org/2000/svg"
   xmlns:svg="http://www.w3.org/2000/svg">
  <sodipodi:namedview
     id="namedview7"
     pagecolor="#505050"
     bordercolor="#eeeeee"
     borderopacity="1"
     inkscape:showpageshadow="0"
     inkscape:pageopacity="0"
     inkscape:pagecheckerboard="0"
     inkscape:deskcolor="#505050"
     inkscape:document-units="mm"
     showgrid="false"
     inkscape:zoom="2.0888418"
     inkscape:cx="333.199"
     inkscape:cy="188.14254"
     inkscape:window-width="1920"
     inkscape:window-height="1009"
     inkscape:window-x="-8"
     inkscape:window-y="-8"
     inkscape:window-maximized="1"
     inkscape:current-layer="layer1" />
  <defs
     id="defs2" />
  <g
     inkscape:label="Capa 1"
     inkscape:groupmode="layer"
     id="layer1">
    <path
       style="fill:#343138;fill-opacity:0.38565;stroke-width:1.61912"
       d="m 64.939412,65.279522 5.920189,-28.660186 38.369559,23.103076 5.52097,9.29565 -7.44296,19.08623 c 0,0 11.93836,-4.31443 16.41271,-8.65769 3.28068,-3.18453 8.60016,-7.71289 6.87043,-12.00266 l -6.49199,-16.10016 c 0,0 -0.14024,-1.1588 -0.56929,-1.41188 C 107.86887,40.693666 73.909169,18.842955 73.909169,18.842955 l -20.03878,4.919341 c 0,0 -4.829065,22.31288 -6.107067,33.646816 -0.632456,5.60893 -0.763376,16.9218 -0.763376,16.9218 z"
       id="path113-3-7"
       sodipodi:nodetypes="cccccsscsccacc" />
    <path
       style="fill:#343138;fill-opacity:0.38565;stroke-width:2.51635"
       d="m 90.98981,70.172202 10.91635,4.94363 11.22825,-5.23456 -11.20008,1.9485 z"
       id="path4818" />
    <path
       style="fill:#e11d48;fill-opacity:1;stroke-width:1.61912"
       d="m 67.056017,62.430352 3.626072,-27.547126 c 0,0 27.746732,12.91508 39.314201,22.824826 2.74392,2.35071 6.87044,8.46084 6.87044,8.46084 l -7.44296,19.08623 c 0,0 11.93837,-4.31443 16.41272,-8.65769 3.28067,-3.18453 8.60015,-7.7129 6.87043,-12.00266 0,0 -3.579,-11.12429 -6.49199,-16.10016 -0.26633,-0.45485 -0.55772,-0.974306 -0.98677,-1.227396 C 109.568,38.028976 76.02577,15.993785 76.02577,15.993785 l -20.038776,4.919331 c 0,0 -4.829065,22.31289 -6.107067,33.646826 -0.632457,5.60893 -0.763376,16.9218 -0.763376,16.9218 z"
       id="path113-3-7-8-9"
       sodipodi:nodetypes="ccaccssasccacc" />
    <path
       style="fill:#343138;fill-opacity:0.38565;stroke-width:1.61912"
       d="m 138.40195,65.327742 -6.30019,-27.140205 -37.989559,21.583095 -5.520971,9.29565 7.442961,19.08623 c 0,0 -11.938371,-4.31443 -16.412711,-8.65769 -3.28068,-3.18453 -8.600162,-7.7129 -6.870434,-12.00266 l 6.491994,-16.10016 c 0,0 0.14024,-1.1588 0.56929,-1.41188 15.660151,-9.238236 49.61986,-31.088947 49.61986,-31.088947 l 20.03879,4.919341 c 0,0 4.82906,22.31288 6.10707,33.646816 0.63245,5.60893 0.76337,16.9218 0.76337,16.9218 z"
       id="path113-3-7-3"
       sodipodi:nodetypes="cccccsscsccacc" />
    <path
       style="fill:#343138;fill-opacity:0.38565;stroke-width:1.61912"
       d="m 135.29813,63.101742 -5.92019,-28.660186 -38.36956,23.103076 -5.52097,9.29565 7.442971,19.08623 c 0,0 -11.938371,-4.31443 -16.412721,-8.65769 -3.280675,-3.18453 -8.600157,-7.7129 -6.87043,-12.00266 l 6.49199,-16.10016 c 0,0 0.14025,-1.1588 0.56929,-1.411876 15.660161,-9.23824 49.61986,-31.088951 49.61986,-31.088951 l 20.03882,4.919341 c 0,0 4.82902,22.31288 6.10706,33.646816 0.63245,5.60893 0.76335,16.9218 0.76335,16.9218 z"
       id="path113-3-7-3-1"
       sodipodi:nodetypes="cccccsscsccacc" />
    <path
       style="fill:#e11d48;fill-opacity:1;stroke-width:1.61912"
       d="m 136.59624,63.273982 -3.62607,-27.547126 c 0,0 -27.74674,12.915076 -39.314199,22.824836 -2.743921,2.35071 -6.870451,8.46084 -6.870451,8.46084 l 7.442961,19.08622 c 0,0 -11.938361,-4.31443 -16.412711,-8.65769 -3.280677,-3.18452 -8.600159,-7.71289 -6.870432,-12.00265 0,0 3.578997,-11.12429 6.491992,-16.10017 0.26632,-0.45484 0.55772,-0.97431 0.98676,-1.22739 15.660161,-9.238236 49.20239,-31.273427 49.20239,-31.273427 l 20.03879,4.919331 c 0,0 4.82907,22.31288 6.10707,33.646816 0.63245,5.60893 0.76337,16.92181 0.76337,16.92181 z"
       id="path113-3-7-8"
       sodipodi:nodetypes="ccaccssasccacc" />
    <path
       style="fill:#e11d48;fill-opacity:1;stroke-width:2.44669"
       d="m 90.90152,69.430472 10.89971,4.68085 11.21115,-4.9563 -11.18302,1.84491 z"
       id="path4818-0" />
  </g>
</svg>
